<svg width="28" height="28" viewBox="0 0 28 28" fill="none" xmlns="http://www.w3.org/2000/svg">
<g clip-path="url(#clip0)">
<path d="M26.7589 24.5413H2.22459C1.54673 24.5413 0.997559 25.0904 0.997559 25.7689C0.997559 26.4462 1.54673 26.9953 2.22459 26.9953H26.7583C27.4361 26.9953 27.9853 26.4462 27.9853 25.7689C27.9847 25.0904 27.4356 24.5413 26.7589 24.5413Z" fill="url(#paint0_linear)"/>
<path d="M3.75877 21.3514C3.08091 21.3514 2.53174 21.9006 2.53174 22.5784C2.53174 23.2563 3.08091 23.8061 3.75877 23.8061H25.226C25.9039 23.8061 26.4531 23.2563 26.4531 22.5784C26.4531 21.9006 25.9039 21.3514 25.226 21.3514H24.9199V10.3104H25.226C25.5655 10.3104 25.839 10.0358 25.839 9.69742C25.839 9.35906 25.5644 9.08447 25.226 9.08447H3.75877C3.41984 9.08447 3.14583 9.35906 3.14583 9.69742C3.14583 10.0358 3.42042 10.3104 3.75877 10.3104H4.06553V21.3508H3.75877V21.3514ZM22.4658 10.3104V21.3508H18.7859V10.3104H22.4658ZM16.3318 10.3104V21.3508H12.6519V10.3104H16.3318ZM6.51843 10.3104H10.1984V21.3508H6.51843V10.3104Z" fill="url(#paint1_linear)"/>
<path d="M2.22461 7.98109H26.7583C26.7623 7.98109 26.7669 7.98109 26.7704 7.98109C27.4488 7.98109 27.9974 7.43191 27.9974 6.75406C27.9974 6.21522 27.6504 5.75852 27.1685 5.59308L14.9958 0.115645C14.6759 -0.0279689 14.3099 -0.0279689 13.9894 0.115645L1.72139 5.63559C1.19347 5.87342 0.903372 6.44672 1.02516 7.01199C1.14636 7.57725 1.64614 7.98109 2.22461 7.98109Z" fill="url(#paint2_linear)"/>
</g>
<defs>
<linearGradient id="paint0_linear" x1="15.8408" y1="24.155" x2="15.8534" y2="28.5067" gradientUnits="userSpaceOnUse">
<stop stop-color="#FD749B"/>
<stop offset="1" stop-color="#281AC8"/>
</linearGradient>
<linearGradient id="paint1_linear" x1="15.6885" y1="6.76719" x2="16.1999" y2="32.8626" gradientUnits="userSpaceOnUse">
<stop stop-color="#FD749B"/>
<stop offset="1" stop-color="#281AC8"/>
</linearGradient>
<linearGradient id="paint2_linear" x1="15.8475" y1="-1.2471" x2="15.9804" y2="12.8903" gradientUnits="userSpaceOnUse">
<stop stop-color="#FD749B"/>
<stop offset="1" stop-color="#281AC8"/>
</linearGradient>
<clipPath id="clip0">
<rect width="26.9998" height="27" fill="white" transform="translate(0.997559 0.00183105)"/>
</clipPath>
</defs>
</svg>
