<svg width="27" height="29" viewBox="0 0 27 29" fill="none" xmlns="http://www.w3.org/2000/svg">
<g clip-path="url(#clip0)">
<path d="M13.5104 0.00171405C6.05408 -0.00479376 0.00628024 6.2584 4.8859e-06 13.9909C-0.00627046 21.7234 6.0332 27.9952 13.4895 28.0017C20.9447 27.9952 26.9883 21.7332 26.9998 14.0017C26.9998 6.27355 20.9625 0.00822186 13.5104 0.00171405ZM13.4895 25.672C7.27451 25.672 2.23609 20.4469 2.23609 14.0017C2.23609 7.55652 7.27451 2.33146 13.4895 2.33146C19.7023 2.33796 24.7366 7.55871 24.7429 14.0017C24.7429 20.4469 19.7044 25.672 13.4895 25.672Z" fill="url(#paint0_linear)"/>
<path d="M17.1362 13.3191C18.039 12.7914 18.527 11.7349 18.3587 10.6752C18.1497 9.03896 16.269 8.42127 14.7852 8.29128V5.83154H13.3223V8.26962H12.3402V5.83154H10.8773V8.26962H7.93066V9.84085H9.0278C9.51892 9.84085 9.75923 9.99255 9.75923 10.4043V17.1551C9.75923 17.7185 9.48754 17.8919 9.19497 17.8919H8.07695V19.4956H10.9191V21.9879H12.3924V19.4956H13.3745V21.9879H14.8061V19.4956H15.1195C18.1288 19.4956 19.1319 17.9678 19.1319 15.8873C19.1079 14.6606 18.2876 13.6052 17.1362 13.3191ZM12.3401 9.93835H13.385C14.1164 9.93835 15.5584 10.0684 15.5584 11.3037C15.6085 12.1099 15.0453 12.8164 14.2731 12.9182H12.3401C12.3401 12.9182 12.3401 9.93835 12.3401 9.93835ZM13.9597 17.7402V17.7294H12.3401V14.4786H14.2209C14.6598 14.4786 16.3107 14.6303 16.3107 15.8439C16.3107 17.0575 15.5271 17.7402 13.9597 17.7402Z" fill="url(#paint1_linear)"/>
</g>
<defs>
<linearGradient id="paint0_linear" x1="14.8499" y1="-4.4057" x2="16.488" y2="45.1919" gradientUnits="userSpaceOnUse">
<stop stop-color="#FD749B"/>
<stop offset="1" stop-color="#281AC8"/>
</linearGradient>
<linearGradient id="paint1_linear" x1="14.0914" y1="3.28841" x2="15.4047" y2="31.8778" gradientUnits="userSpaceOnUse">
<stop stop-color="#FD749B"/>
<stop offset="1" stop-color="#281AC8"/>
</linearGradient>
<clipPath id="clip0">
<rect width="26.9998" height="28" fill="white" transform="translate(0 0.00183105)"/>
</clipPath>
</defs>
</svg>
