<svg width="15" height="12" viewBox="0 0 15 12" fill="none" xmlns="http://www.w3.org/2000/svg">
<path d="M0.25971 4.84306H11.2819V6.38105C11.2819 6.45049 11.3071 6.51048 11.3578 6.56129C11.4086 6.61207 11.4687 6.6374 11.5381 6.6374C11.6129 6.6374 11.6744 6.61342 11.7223 6.56533L14.2856 4.00205C14.3335 3.95399 14.3575 3.89254 14.3575 3.81786C14.3575 3.74303 14.3335 3.68156 14.2854 3.63361L11.7303 1.0783C11.6662 1.02482 11.6021 0.998169 11.5379 0.998169C11.4633 0.998169 11.4018 1.02219 11.3538 1.07022C11.3058 1.11833 11.2818 1.17967 11.2818 1.25446V2.79245H0.25971C0.190299 2.79245 0.130231 2.81779 0.079506 2.86854C0.0287806 2.9193 0.00341797 2.97934 0.00341797 3.04875V4.58674C0.00341797 4.65615 0.0287526 4.71622 0.079506 4.76695C0.130259 4.81767 0.190299 4.84306 0.25971 4.84306Z" fill="url(#paint0_linear)"/>
<path d="M14.1008 7.91922H3.07877V6.38117C3.07877 6.31176 3.05338 6.25169 3.00268 6.20097C2.95193 6.15021 2.89183 6.12488 2.82245 6.12488C2.74763 6.12488 2.68627 6.14889 2.63821 6.19693L0.0749776 8.76007C0.0270298 8.80827 0.00292969 8.86954 0.00292969 8.94445C0.00292969 9.01378 0.0269176 9.07261 0.0749776 9.12051L2.63024 11.6839C2.69435 11.7372 2.75843 11.7639 2.82254 11.7639C2.89192 11.7639 2.95201 11.7385 3.00274 11.6879C3.05344 11.637 3.07883 11.5771 3.07883 11.5076V9.96966H14.1008C14.1703 9.96966 14.2302 9.94444 14.2811 9.89363C14.3318 9.84282 14.3571 9.78283 14.3571 9.71331V8.17537C14.3571 8.10593 14.3317 8.04595 14.2811 7.99525C14.2302 7.94455 14.1703 7.91922 14.1008 7.91922Z" fill="url(#paint1_linear)"/>
<defs>
<linearGradient id="paint0_linear" x1="7.89817" y1="0.110512" x2="8.02327" y2="10.1089" gradientUnits="userSpaceOnUse">
<stop stop-color="#FD749B"/>
<stop offset="1" stop-color="#281AC8"/>
</linearGradient>
<linearGradient id="paint1_linear" x1="7.89771" y1="5.23726" x2="8.0228" y2="15.2352" gradientUnits="userSpaceOnUse">
<stop stop-color="#FD749B"/>
<stop offset="1" stop-color="#281AC8"/>
</linearGradient>
</defs>
</svg>
