<svg width="12" height="13" viewBox="0 0 12 13" fill="none" xmlns="http://www.w3.org/2000/svg">
<path opacity="0.8" fill-rule="evenodd" clip-rule="evenodd" d="M11.9995 12.2822C11.9995 12.6785 11.703 13 11.3373 13H8.27932V7.96565H9.83918L10.0729 6.0039H8.27932V4.75106C8.27932 4.18307 8.42511 3.79603 9.17692 3.79603L10.136 3.79568V2.04072C9.96993 2.017 9.40084 1.96353 8.73858 1.96353C7.35589 1.96353 6.40925 2.87783 6.40925 4.55701V6.0039H4.84547V7.96565H6.40925V13H0.661766C0.29599 13 -0.000488281 12.6785 -0.000488281 12.2822V0.717776C-0.000488281 0.321176 0.29599 0 0.661766 0H11.3373C11.703 0 11.9995 0.321176 11.9995 0.717776V12.2822Z" fill="white"/>
</svg>
