<svg width="14" height="9" viewBox="0 0 14 9" fill="none" xmlns="http://www.w3.org/2000/svg">
<path opacity="0.8" fill-rule="evenodd" clip-rule="evenodd" d="M4.44622 5.3911V3.6089H8.71668C9.01401 5.76541 8.11683 9 4.44622 9C1.99059 9 -0.000488281 6.98508 -0.000488281 4.49982C-0.000488281 2.01456 1.99059 0 4.44622 0C5.5984 0 6.64824 0.443358 7.43822 1.17096C6.82629 1.75594 6.62999 1.97911 6.4633 2.16861C6.37653 2.26727 6.29777 2.3568 6.17258 2.48351C5.71567 2.10113 5.21746 1.82671 4.44622 1.82671C2.98734 1.82671 1.84869 3.0236 1.84869 4.49982C1.84869 5.9764 2.98734 7.17329 4.44622 7.17329C5.88775 7.17329 6.47338 6.54418 6.85015 5.38864C6.15454 5.38864 4.44622 5.3911 4.44622 5.3911ZM12.4588 2.13863V3.69792H13.9995V4.81175H12.4588V6.4159H11.3583V4.81175H9.77311V3.69792H11.3583V2.13863H12.4588Z" fill="white"/>
</svg>
