<svg width="12" height="13" viewBox="0 0 12 13" fill="none" xmlns="http://www.w3.org/2000/svg">
<path opacity="0.8" fill-rule="evenodd" clip-rule="evenodd" d="M10.5731 0H1.42591C0.638085 0 -0.000488281 0.690014 -0.000488281 1.54172V11.4583C-0.000488281 12.3096 0.638085 13 1.42591 13H10.5731C11.3609 13 11.9995 12.3096 11.9995 11.4583V1.54172C11.9995 0.690014 11.3609 0 10.5731 0ZM8.62467 2.03104C8.62467 1.80694 8.79257 1.62504 8.99943 1.62504H10.1244C10.3316 1.62504 10.4995 1.80694 10.4995 2.03104V3.25009C10.4995 3.47418 10.3316 3.65608 10.1244 3.65608H8.99943C8.79257 3.65608 8.62467 3.47418 8.62467 3.25009V2.03104ZM6.01342 4.02095C7.28795 4.02095 8.32125 5.13788 8.32125 6.51507C8.32125 7.89262 7.28795 9.00919 6.01342 9.00919C4.73922 9.00919 3.70592 7.89262 3.70592 6.51507C3.70592 5.13788 4.73922 4.02095 6.01342 4.02095ZM10.8746 11.375C10.8746 11.5991 10.7067 11.7813 10.4995 11.7813H1.49955C1.29237 11.7813 1.12446 11.5991 1.12446 11.375V5.28113H2.6245C2.4291 5.58571 2.36298 6.15411 2.36298 6.51507C2.36298 8.69042 4.00082 10.4605 6.01342 10.4605C8.02635 10.4605 9.66419 8.69042 9.66419 6.51507C9.66419 6.15411 9.61673 5.59458 9.37452 5.28113H10.8746V11.375Z" fill="white"/>
</svg>
