<svg width="114" height="25" viewBox="0 0 114 25" fill="none" xmlns="http://www.w3.org/2000/svg">
<mask id="path-1-outside-1" maskUnits="userSpaceOnUse" x="36.0107" y="8.37451" width="78" height="14" fill="black">
<rect fill="white" x="36.0107" y="8.37451" width="78" height="14"/>
<path d="M37.0107 16.0961C37.0107 14.9867 37.2624 13.9915 37.7657 13.1105C38.2691 12.2187 38.9529 11.5226 39.8173 11.0223C40.6927 10.522 41.661 10.2718 42.7224 10.2718C43.9698 10.2718 45.0585 10.5709 45.9885 11.1691C46.9186 11.7673 47.597 12.6157 48.0237 13.7142H46.2347C45.9174 13.029 45.4579 12.5015 44.8561 12.1317C44.2652 11.7619 43.554 11.577 42.7224 11.577C41.9236 11.577 41.2069 11.7619 40.5723 12.1317C39.9377 12.5015 39.4398 13.029 39.0788 13.7142C38.7177 14.3885 38.5371 15.1825 38.5371 16.0961C38.5371 16.9989 38.7177 17.7928 39.0788 18.478C39.4398 19.1524 39.9377 19.6744 40.5723 20.0442C41.2069 20.414 41.9236 20.5989 42.7224 20.5989C43.554 20.5989 44.2652 20.4195 44.8561 20.0606C45.4579 19.6908 45.9174 19.1633 46.2347 18.478H48.0237C47.597 19.5657 46.9186 20.4086 45.9885 21.0068C45.0585 21.5941 43.9698 21.8878 42.7224 21.8878C41.661 21.8878 40.6927 21.6431 39.8173 21.1536C38.9529 20.6533 38.2691 19.9627 37.7657 19.0817C37.2624 18.2007 37.0107 17.2055 37.0107 16.0961Z"/>
<path d="M54.1697 21.9367C53.3272 21.9367 52.5612 21.7464 51.8719 21.3657C51.1935 20.985 50.6573 20.4467 50.2634 19.7506C49.8805 19.0436 49.689 18.2279 49.689 17.3034C49.689 16.3898 49.8859 15.5849 50.2798 14.8888C50.6847 14.1819 51.2318 13.6435 51.9211 13.2737C52.6105 12.893 53.3819 12.7027 54.2353 12.7027C55.0888 12.7027 55.8602 12.893 56.5495 13.2737C57.2389 13.6435 57.7805 14.1764 58.1744 14.8725C58.5793 15.5686 58.7817 16.3789 58.7817 17.3034C58.7817 18.2279 58.5738 19.0436 58.158 19.7506C57.7531 20.4467 57.2006 20.985 56.5003 21.3657C55.8 21.7464 55.0231 21.9367 54.1697 21.9367ZM54.1697 20.6316C54.7058 20.6316 55.2092 20.5065 55.6797 20.2563C56.1502 20.0062 56.5277 19.6309 56.8121 19.1306C57.1076 18.6303 57.2553 18.0212 57.2553 17.3034C57.2553 16.5855 57.113 15.9765 56.8286 15.4762C56.5441 14.9758 56.172 14.606 55.7125 14.3668C55.2529 14.1166 54.7551 13.9915 54.2189 13.9915C53.6718 13.9915 53.1685 14.1166 52.7089 14.3668C52.2603 14.606 51.8992 14.9758 51.6257 15.4762C51.3521 15.9765 51.2154 16.5855 51.2154 17.3034C51.2154 18.0321 51.3467 18.6466 51.6093 19.1469C51.8828 19.6472 52.2439 20.0225 52.6925 20.2726C53.1411 20.5119 53.6335 20.6316 54.1697 20.6316Z"/>
<path d="M61.5168 11.3975C61.2324 11.3975 60.9916 11.2996 60.7947 11.1039C60.5977 10.9081 60.4992 10.6688 60.4992 10.386C60.4992 10.1032 60.5977 9.86395 60.7947 9.66817C60.9916 9.4724 61.2324 9.37451 61.5168 9.37451C61.7904 9.37451 62.0202 9.4724 62.2062 9.66817C62.4031 9.86395 62.5016 10.1032 62.5016 10.386C62.5016 10.6688 62.4031 10.9081 62.2062 11.1039C62.0202 11.2996 61.7904 11.3975 61.5168 11.3975ZM62.239 12.8495V21.7899H60.7454V12.8495H62.239Z"/>
<path d="M69.1667 12.6864C70.2609 12.6864 71.1472 13.0181 71.8256 13.6816C72.504 14.3341 72.8432 15.2804 72.8432 16.5203V21.7899H71.3661V16.7324C71.3661 15.8405 71.1418 15.1607 70.6931 14.6931C70.2445 14.2145 69.6318 13.9752 68.8549 13.9752C68.0671 13.9752 67.4379 14.2199 66.9674 14.7094C66.5079 15.1988 66.2781 15.9112 66.2781 16.8466V21.7899H64.7845V12.8495H66.2781V14.122C66.5735 13.6652 66.9729 13.3118 67.4762 13.0616C67.9905 12.8114 68.554 12.6864 69.1667 12.6864Z"/>
<path d="M81.011 15.933C81.4268 15.9982 81.8043 16.1668 82.1435 16.4387C82.4936 16.7106 82.7672 17.0478 82.9641 17.4502C83.172 17.8526 83.276 18.2823 83.276 18.7391C83.276 19.3155 83.1283 19.8376 82.8328 20.3053C82.5374 20.7621 82.1052 21.1264 81.5362 21.3983C80.9782 21.6594 80.3162 21.7899 79.5503 21.7899H75.2829V10.4186H79.3861C80.163 10.4186 80.825 10.5492 81.3721 10.8102C81.9192 11.0603 82.3295 11.403 82.6031 11.838C82.8766 12.2731 83.0134 12.7625 83.0134 13.3063C83.0134 13.9807 82.8274 14.5408 82.4553 14.9867C82.0943 15.4218 81.6128 15.7372 81.011 15.933ZM76.7765 15.3293H79.2877C79.9879 15.3293 80.5296 15.1662 80.9125 14.8399C81.2955 14.5136 81.487 14.0622 81.487 13.4858C81.487 12.9093 81.2955 12.458 80.9125 12.1317C80.5296 11.8054 79.977 11.6422 79.2548 11.6422H76.7765V15.3293ZM79.419 20.5663C80.163 20.5663 80.7429 20.3923 81.1587 20.0442C81.5745 19.6962 81.7824 19.2122 81.7824 18.5922C81.7824 17.9614 81.5636 17.4665 81.1259 17.1076C80.6882 16.7378 80.1028 16.5529 79.3697 16.5529H76.7765V20.5663H79.419Z"/>
<path d="M84.7906 17.2871C84.7906 16.3735 84.9766 15.574 85.3486 14.8888C85.7206 14.1927 86.2294 13.6544 86.875 13.2737C87.5315 12.893 88.2591 12.7027 89.0579 12.7027C89.8457 12.7027 90.5296 12.8713 91.1095 13.2084C91.6894 13.5456 92.1216 13.9698 92.4061 14.481V12.8495H93.9161V21.7899H92.4061V20.1258C92.1107 20.6479 91.6675 21.0829 91.0767 21.431C90.4967 21.7681 89.8184 21.9367 89.0415 21.9367C88.2427 21.9367 87.5206 21.741 86.875 21.3494C86.2294 20.9579 85.7206 20.4086 85.3486 19.7016C84.9766 18.9947 84.7906 18.1898 84.7906 17.2871ZM92.4061 17.3034C92.4061 16.6291 92.2693 16.0417 91.9958 15.5414C91.7222 15.0411 91.3502 14.6604 90.8797 14.3994C90.4202 14.1275 89.9114 13.9915 89.3533 13.9915C88.7953 13.9915 88.2865 14.1221 87.8269 14.3831C87.3674 14.6441 87.0008 15.0248 86.7273 15.5251C86.4537 16.0254 86.317 16.6127 86.317 17.2871C86.317 17.9723 86.4537 18.5705 86.7273 19.0817C87.0008 19.582 87.3674 19.9681 87.8269 20.24C88.2865 20.501 88.7953 20.6316 89.3533 20.6316C89.9114 20.6316 90.4202 20.501 90.8797 20.24C91.3502 19.9681 91.7222 19.582 91.9958 19.0817C92.2693 18.5705 92.4061 17.9777 92.4061 17.3034Z"/>
<path d="M99.6241 21.9367C98.9348 21.9367 98.3166 21.8225 97.7695 21.5941C97.2224 21.3548 96.7902 21.0285 96.4729 20.6152C96.1556 20.1911 95.9805 19.7071 95.9477 19.1633H97.4905C97.5343 19.6092 97.7421 19.9735 98.1142 20.2563C98.4971 20.5391 98.995 20.6805 99.6077 20.6805C100.177 20.6805 100.625 20.5554 100.954 20.3053C101.282 20.0551 101.446 19.7397 101.446 19.359C101.446 18.9675 101.271 18.6793 100.921 18.4944C100.571 18.2986 100.029 18.1082 99.2959 17.9233C98.6284 17.7493 98.0813 17.5753 97.6546 17.4013C97.2388 17.2164 96.8777 16.9499 96.5714 16.6019C96.2759 16.2429 96.1282 15.7753 96.1282 15.1988C96.1282 14.742 96.265 14.3233 96.5385 13.9426C96.8121 13.5619 97.2005 13.2628 97.7038 13.0453C98.2072 12.8169 98.7816 12.7027 99.4272 12.7027C100.423 12.7027 101.227 12.9528 101.84 13.4532C102.453 13.9535 102.781 14.6387 102.825 15.5088H101.331C101.298 15.0411 101.107 14.6659 100.757 14.3831C100.417 14.1003 99.9579 13.9589 99.378 13.9589C98.8418 13.9589 98.4151 14.0731 98.0978 14.3015C97.7804 14.5299 97.6218 14.829 97.6218 15.1988C97.6218 15.4925 97.7148 15.7372 97.9008 15.933C98.0978 16.1179 98.3385 16.2701 98.623 16.3898C98.9184 16.4985 99.3232 16.6236 99.8375 16.765C100.483 16.939 101.008 17.1131 101.413 17.2871C101.818 17.4502 102.163 17.7004 102.447 18.0375C102.743 18.3747 102.896 18.8152 102.907 19.359C102.907 19.8485 102.77 20.289 102.496 20.6805C102.223 21.0721 101.834 21.382 101.331 21.6104C100.839 21.828 100.27 21.9367 99.6241 21.9367Z"/>
<path d="M113.222 16.9771C113.222 17.2599 113.205 17.559 113.172 17.8744H105.983C106.038 18.7554 106.339 19.446 106.886 19.9463C107.444 20.4358 108.117 20.6805 108.905 20.6805C109.551 20.6805 110.087 20.5337 110.513 20.24C110.951 19.9355 111.257 19.533 111.433 19.0327H113.041C112.8 19.892 112.319 20.5935 111.597 21.1373C110.874 21.6703 109.977 21.9367 108.905 21.9367C108.051 21.9367 107.286 21.7464 106.607 21.3657C105.94 20.985 105.414 20.4467 105.032 19.7506C104.649 19.0436 104.457 18.2279 104.457 17.3034C104.457 16.3789 104.643 15.5686 105.015 14.8725C105.387 14.1764 105.907 13.6435 106.574 13.2737C107.253 12.893 108.03 12.7027 108.905 12.7027C109.758 12.7027 110.513 12.8876 111.17 13.2574C111.826 13.6272 112.33 14.1384 112.68 14.7909C113.041 15.4327 113.222 16.1614 113.222 16.9771ZM111.679 16.6671C111.679 16.1016 111.553 15.6176 111.301 15.2151C111.05 14.8018 110.705 14.4918 110.267 14.2852C109.84 14.0677 109.365 13.9589 108.839 13.9589C108.084 13.9589 107.439 14.1982 106.903 14.6767C106.377 15.1553 106.076 15.8188 106 16.6671H111.679Z"/>
</mask>
<path d="M37.0107 16.0961C37.0107 14.9867 37.2624 13.9915 37.7657 13.1105C38.2691 12.2187 38.9529 11.5226 39.8173 11.0223C40.6927 10.522 41.661 10.2718 42.7224 10.2718C43.9698 10.2718 45.0585 10.5709 45.9885 11.1691C46.9186 11.7673 47.597 12.6157 48.0237 13.7142H46.2347C45.9174 13.029 45.4579 12.5015 44.8561 12.1317C44.2652 11.7619 43.554 11.577 42.7224 11.577C41.9236 11.577 41.2069 11.7619 40.5723 12.1317C39.9377 12.5015 39.4398 13.029 39.0788 13.7142C38.7177 14.3885 38.5371 15.1825 38.5371 16.0961C38.5371 16.9989 38.7177 17.7928 39.0788 18.478C39.4398 19.1524 39.9377 19.6744 40.5723 20.0442C41.2069 20.414 41.9236 20.5989 42.7224 20.5989C43.554 20.5989 44.2652 20.4195 44.8561 20.0606C45.4579 19.6908 45.9174 19.1633 46.2347 18.478H48.0237C47.597 19.5657 46.9186 20.4086 45.9885 21.0068C45.0585 21.5941 43.9698 21.8878 42.7224 21.8878C41.661 21.8878 40.6927 21.6431 39.8173 21.1536C38.9529 20.6533 38.2691 19.9627 37.7657 19.0817C37.2624 18.2007 37.0107 17.2055 37.0107 16.0961Z" fill="white"/>
<path d="M54.1697 21.9367C53.3272 21.9367 52.5612 21.7464 51.8719 21.3657C51.1935 20.985 50.6573 20.4467 50.2634 19.7506C49.8805 19.0436 49.689 18.2279 49.689 17.3034C49.689 16.3898 49.8859 15.5849 50.2798 14.8888C50.6847 14.1819 51.2318 13.6435 51.9211 13.2737C52.6105 12.893 53.3819 12.7027 54.2353 12.7027C55.0888 12.7027 55.8602 12.893 56.5495 13.2737C57.2389 13.6435 57.7805 14.1764 58.1744 14.8725C58.5793 15.5686 58.7817 16.3789 58.7817 17.3034C58.7817 18.2279 58.5738 19.0436 58.158 19.7506C57.7531 20.4467 57.2006 20.985 56.5003 21.3657C55.8 21.7464 55.0231 21.9367 54.1697 21.9367ZM54.1697 20.6316C54.7058 20.6316 55.2092 20.5065 55.6797 20.2563C56.1502 20.0062 56.5277 19.6309 56.8121 19.1306C57.1076 18.6303 57.2553 18.0212 57.2553 17.3034C57.2553 16.5855 57.113 15.9765 56.8286 15.4762C56.5441 14.9758 56.172 14.606 55.7125 14.3668C55.2529 14.1166 54.7551 13.9915 54.2189 13.9915C53.6718 13.9915 53.1685 14.1166 52.7089 14.3668C52.2603 14.606 51.8992 14.9758 51.6257 15.4762C51.3521 15.9765 51.2154 16.5855 51.2154 17.3034C51.2154 18.0321 51.3467 18.6466 51.6093 19.1469C51.8828 19.6472 52.2439 20.0225 52.6925 20.2726C53.1411 20.5119 53.6335 20.6316 54.1697 20.6316Z" fill="white"/>
<path d="M61.5168 11.3975C61.2324 11.3975 60.9916 11.2996 60.7947 11.1039C60.5977 10.9081 60.4992 10.6688 60.4992 10.386C60.4992 10.1032 60.5977 9.86395 60.7947 9.66817C60.9916 9.4724 61.2324 9.37451 61.5168 9.37451C61.7904 9.37451 62.0202 9.4724 62.2062 9.66817C62.4031 9.86395 62.5016 10.1032 62.5016 10.386C62.5016 10.6688 62.4031 10.9081 62.2062 11.1039C62.0202 11.2996 61.7904 11.3975 61.5168 11.3975ZM62.239 12.8495V21.7899H60.7454V12.8495H62.239Z" fill="white"/>
<path d="M69.1667 12.6864C70.2609 12.6864 71.1472 13.0181 71.8256 13.6816C72.504 14.3341 72.8432 15.2804 72.8432 16.5203V21.7899H71.3661V16.7324C71.3661 15.8405 71.1418 15.1607 70.6931 14.6931C70.2445 14.2145 69.6318 13.9752 68.8549 13.9752C68.0671 13.9752 67.4379 14.2199 66.9674 14.7094C66.5079 15.1988 66.2781 15.9112 66.2781 16.8466V21.7899H64.7845V12.8495H66.2781V14.122C66.5735 13.6652 66.9729 13.3118 67.4762 13.0616C67.9905 12.8114 68.554 12.6864 69.1667 12.6864Z" fill="white"/>
<path d="M81.011 15.933C81.4268 15.9982 81.8043 16.1668 82.1435 16.4387C82.4936 16.7106 82.7672 17.0478 82.9641 17.4502C83.172 17.8526 83.276 18.2823 83.276 18.7391C83.276 19.3155 83.1283 19.8376 82.8328 20.3053C82.5374 20.7621 82.1052 21.1264 81.5362 21.3983C80.9782 21.6594 80.3162 21.7899 79.5503 21.7899H75.2829V10.4186H79.3861C80.163 10.4186 80.825 10.5492 81.3721 10.8102C81.9192 11.0603 82.3295 11.403 82.6031 11.838C82.8766 12.2731 83.0134 12.7625 83.0134 13.3063C83.0134 13.9807 82.8274 14.5408 82.4553 14.9867C82.0943 15.4218 81.6128 15.7372 81.011 15.933ZM76.7765 15.3293H79.2877C79.9879 15.3293 80.5296 15.1662 80.9125 14.8399C81.2955 14.5136 81.487 14.0622 81.487 13.4858C81.487 12.9093 81.2955 12.458 80.9125 12.1317C80.5296 11.8054 79.977 11.6422 79.2548 11.6422H76.7765V15.3293ZM79.419 20.5663C80.163 20.5663 80.7429 20.3923 81.1587 20.0442C81.5745 19.6962 81.7824 19.2122 81.7824 18.5922C81.7824 17.9614 81.5636 17.4665 81.1259 17.1076C80.6882 16.7378 80.1028 16.5529 79.3697 16.5529H76.7765V20.5663H79.419Z" fill="white"/>
<path d="M84.7906 17.2871C84.7906 16.3735 84.9766 15.574 85.3486 14.8888C85.7206 14.1927 86.2294 13.6544 86.875 13.2737C87.5315 12.893 88.2591 12.7027 89.0579 12.7027C89.8457 12.7027 90.5296 12.8713 91.1095 13.2084C91.6894 13.5456 92.1216 13.9698 92.4061 14.481V12.8495H93.9161V21.7899H92.4061V20.1258C92.1107 20.6479 91.6675 21.0829 91.0767 21.431C90.4967 21.7681 89.8184 21.9367 89.0415 21.9367C88.2427 21.9367 87.5206 21.741 86.875 21.3494C86.2294 20.9579 85.7206 20.4086 85.3486 19.7016C84.9766 18.9947 84.7906 18.1898 84.7906 17.2871ZM92.4061 17.3034C92.4061 16.6291 92.2693 16.0417 91.9958 15.5414C91.7222 15.0411 91.3502 14.6604 90.8797 14.3994C90.4202 14.1275 89.9114 13.9915 89.3533 13.9915C88.7953 13.9915 88.2865 14.1221 87.8269 14.3831C87.3674 14.6441 87.0008 15.0248 86.7273 15.5251C86.4537 16.0254 86.317 16.6127 86.317 17.2871C86.317 17.9723 86.4537 18.5705 86.7273 19.0817C87.0008 19.582 87.3674 19.9681 87.8269 20.24C88.2865 20.501 88.7953 20.6316 89.3533 20.6316C89.9114 20.6316 90.4202 20.501 90.8797 20.24C91.3502 19.9681 91.7222 19.582 91.9958 19.0817C92.2693 18.5705 92.4061 17.9777 92.4061 17.3034Z" fill="white"/>
<path d="M99.6241 21.9367C98.9348 21.9367 98.3166 21.8225 97.7695 21.5941C97.2224 21.3548 96.7902 21.0285 96.4729 20.6152C96.1556 20.1911 95.9805 19.7071 95.9477 19.1633H97.4905C97.5343 19.6092 97.7421 19.9735 98.1142 20.2563C98.4971 20.5391 98.995 20.6805 99.6077 20.6805C100.177 20.6805 100.625 20.5554 100.954 20.3053C101.282 20.0551 101.446 19.7397 101.446 19.359C101.446 18.9675 101.271 18.6793 100.921 18.4944C100.571 18.2986 100.029 18.1082 99.2959 17.9233C98.6284 17.7493 98.0813 17.5753 97.6546 17.4013C97.2388 17.2164 96.8777 16.9499 96.5714 16.6019C96.2759 16.2429 96.1282 15.7753 96.1282 15.1988C96.1282 14.742 96.265 14.3233 96.5385 13.9426C96.8121 13.5619 97.2005 13.2628 97.7038 13.0453C98.2072 12.8169 98.7816 12.7027 99.4272 12.7027C100.423 12.7027 101.227 12.9528 101.84 13.4532C102.453 13.9535 102.781 14.6387 102.825 15.5088H101.331C101.298 15.0411 101.107 14.6659 100.757 14.3831C100.417 14.1003 99.9579 13.9589 99.378 13.9589C98.8418 13.9589 98.4151 14.0731 98.0978 14.3015C97.7804 14.5299 97.6218 14.829 97.6218 15.1988C97.6218 15.4925 97.7148 15.7372 97.9008 15.933C98.0978 16.1179 98.3385 16.2701 98.623 16.3898C98.9184 16.4985 99.3232 16.6236 99.8375 16.765C100.483 16.939 101.008 17.1131 101.413 17.2871C101.818 17.4502 102.163 17.7004 102.447 18.0375C102.743 18.3747 102.896 18.8152 102.907 19.359C102.907 19.8485 102.77 20.289 102.496 20.6805C102.223 21.0721 101.834 21.382 101.331 21.6104C100.839 21.828 100.27 21.9367 99.6241 21.9367Z" fill="white"/>
<path d="M113.222 16.9771C113.222 17.2599 113.205 17.559 113.172 17.8744H105.983C106.038 18.7554 106.339 19.446 106.886 19.9463C107.444 20.4358 108.117 20.6805 108.905 20.6805C109.551 20.6805 110.087 20.5337 110.513 20.24C110.951 19.9355 111.257 19.533 111.433 19.0327H113.041C112.8 19.892 112.319 20.5935 111.597 21.1373C110.874 21.6703 109.977 21.9367 108.905 21.9367C108.051 21.9367 107.286 21.7464 106.607 21.3657C105.94 20.985 105.414 20.4467 105.032 19.7506C104.649 19.0436 104.457 18.2279 104.457 17.3034C104.457 16.3789 104.643 15.5686 105.015 14.8725C105.387 14.1764 105.907 13.6435 106.574 13.2737C107.253 12.893 108.03 12.7027 108.905 12.7027C109.758 12.7027 110.513 12.8876 111.17 13.2574C111.826 13.6272 112.33 14.1384 112.68 14.7909C113.041 15.4327 113.222 16.1614 113.222 16.9771ZM111.679 16.6671C111.679 16.1016 111.553 15.6176 111.301 15.2151C111.05 14.8018 110.705 14.4918 110.267 14.2852C109.84 14.0677 109.365 13.9589 108.839 13.9589C108.084 13.9589 107.439 14.1982 106.903 14.6767C106.377 15.1553 106.076 15.8188 106 16.6671H111.679Z" fill="white"/>
<path d="M37.0107 16.0961C37.0107 14.9867 37.2624 13.9915 37.7657 13.1105C38.2691 12.2187 38.9529 11.5226 39.8173 11.0223C40.6927 10.522 41.661 10.2718 42.7224 10.2718C43.9698 10.2718 45.0585 10.5709 45.9885 11.1691C46.9186 11.7673 47.597 12.6157 48.0237 13.7142H46.2347C45.9174 13.029 45.4579 12.5015 44.8561 12.1317C44.2652 11.7619 43.554 11.577 42.7224 11.577C41.9236 11.577 41.2069 11.7619 40.5723 12.1317C39.9377 12.5015 39.4398 13.029 39.0788 13.7142C38.7177 14.3885 38.5371 15.1825 38.5371 16.0961C38.5371 16.9989 38.7177 17.7928 39.0788 18.478C39.4398 19.1524 39.9377 19.6744 40.5723 20.0442C41.2069 20.414 41.9236 20.5989 42.7224 20.5989C43.554 20.5989 44.2652 20.4195 44.8561 20.0606C45.4579 19.6908 45.9174 19.1633 46.2347 18.478H48.0237C47.597 19.5657 46.9186 20.4086 45.9885 21.0068C45.0585 21.5941 43.9698 21.8878 42.7224 21.8878C41.661 21.8878 40.6927 21.6431 39.8173 21.1536C38.9529 20.6533 38.2691 19.9627 37.7657 19.0817C37.2624 18.2007 37.0107 17.2055 37.0107 16.0961Z" stroke="white" stroke-width="0.4" mask="url(#path-1-outside-1)"/>
<path d="M54.1697 21.9367C53.3272 21.9367 52.5612 21.7464 51.8719 21.3657C51.1935 20.985 50.6573 20.4467 50.2634 19.7506C49.8805 19.0436 49.689 18.2279 49.689 17.3034C49.689 16.3898 49.8859 15.5849 50.2798 14.8888C50.6847 14.1819 51.2318 13.6435 51.9211 13.2737C52.6105 12.893 53.3819 12.7027 54.2353 12.7027C55.0888 12.7027 55.8602 12.893 56.5495 13.2737C57.2389 13.6435 57.7805 14.1764 58.1744 14.8725C58.5793 15.5686 58.7817 16.3789 58.7817 17.3034C58.7817 18.2279 58.5738 19.0436 58.158 19.7506C57.7531 20.4467 57.2006 20.985 56.5003 21.3657C55.8 21.7464 55.0231 21.9367 54.1697 21.9367ZM54.1697 20.6316C54.7058 20.6316 55.2092 20.5065 55.6797 20.2563C56.1502 20.0062 56.5277 19.6309 56.8121 19.1306C57.1076 18.6303 57.2553 18.0212 57.2553 17.3034C57.2553 16.5855 57.113 15.9765 56.8286 15.4762C56.5441 14.9758 56.172 14.606 55.7125 14.3668C55.2529 14.1166 54.7551 13.9915 54.2189 13.9915C53.6718 13.9915 53.1685 14.1166 52.7089 14.3668C52.2603 14.606 51.8992 14.9758 51.6257 15.4762C51.3521 15.9765 51.2154 16.5855 51.2154 17.3034C51.2154 18.0321 51.3467 18.6466 51.6093 19.1469C51.8828 19.6472 52.2439 20.0225 52.6925 20.2726C53.1411 20.5119 53.6335 20.6316 54.1697 20.6316Z" stroke="white" stroke-width="0.4" mask="url(#path-1-outside-1)"/>
<path d="M61.5168 11.3975C61.2324 11.3975 60.9916 11.2996 60.7947 11.1039C60.5977 10.9081 60.4992 10.6688 60.4992 10.386C60.4992 10.1032 60.5977 9.86395 60.7947 9.66817C60.9916 9.4724 61.2324 9.37451 61.5168 9.37451C61.7904 9.37451 62.0202 9.4724 62.2062 9.66817C62.4031 9.86395 62.5016 10.1032 62.5016 10.386C62.5016 10.6688 62.4031 10.9081 62.2062 11.1039C62.0202 11.2996 61.7904 11.3975 61.5168 11.3975ZM62.239 12.8495V21.7899H60.7454V12.8495H62.239Z" stroke="white" stroke-width="0.4" mask="url(#path-1-outside-1)"/>
<path d="M69.1667 12.6864C70.2609 12.6864 71.1472 13.0181 71.8256 13.6816C72.504 14.3341 72.8432 15.2804 72.8432 16.5203V21.7899H71.3661V16.7324C71.3661 15.8405 71.1418 15.1607 70.6931 14.6931C70.2445 14.2145 69.6318 13.9752 68.8549 13.9752C68.0671 13.9752 67.4379 14.2199 66.9674 14.7094C66.5079 15.1988 66.2781 15.9112 66.2781 16.8466V21.7899H64.7845V12.8495H66.2781V14.122C66.5735 13.6652 66.9729 13.3118 67.4762 13.0616C67.9905 12.8114 68.554 12.6864 69.1667 12.6864Z" stroke="white" stroke-width="0.4" mask="url(#path-1-outside-1)"/>
<path d="M81.011 15.933C81.4268 15.9982 81.8043 16.1668 82.1435 16.4387C82.4936 16.7106 82.7672 17.0478 82.9641 17.4502C83.172 17.8526 83.276 18.2823 83.276 18.7391C83.276 19.3155 83.1283 19.8376 82.8328 20.3053C82.5374 20.7621 82.1052 21.1264 81.5362 21.3983C80.9782 21.6594 80.3162 21.7899 79.5503 21.7899H75.2829V10.4186H79.3861C80.163 10.4186 80.825 10.5492 81.3721 10.8102C81.9192 11.0603 82.3295 11.403 82.6031 11.838C82.8766 12.2731 83.0134 12.7625 83.0134 13.3063C83.0134 13.9807 82.8274 14.5408 82.4553 14.9867C82.0943 15.4218 81.6128 15.7372 81.011 15.933ZM76.7765 15.3293H79.2877C79.9879 15.3293 80.5296 15.1662 80.9125 14.8399C81.2955 14.5136 81.487 14.0622 81.487 13.4858C81.487 12.9093 81.2955 12.458 80.9125 12.1317C80.5296 11.8054 79.977 11.6422 79.2548 11.6422H76.7765V15.3293ZM79.419 20.5663C80.163 20.5663 80.7429 20.3923 81.1587 20.0442C81.5745 19.6962 81.7824 19.2122 81.7824 18.5922C81.7824 17.9614 81.5636 17.4665 81.1259 17.1076C80.6882 16.7378 80.1028 16.5529 79.3697 16.5529H76.7765V20.5663H79.419Z" stroke="white" stroke-width="0.4" mask="url(#path-1-outside-1)"/>
<path d="M84.7906 17.2871C84.7906 16.3735 84.9766 15.574 85.3486 14.8888C85.7206 14.1927 86.2294 13.6544 86.875 13.2737C87.5315 12.893 88.2591 12.7027 89.0579 12.7027C89.8457 12.7027 90.5296 12.8713 91.1095 13.2084C91.6894 13.5456 92.1216 13.9698 92.4061 14.481V12.8495H93.9161V21.7899H92.4061V20.1258C92.1107 20.6479 91.6675 21.0829 91.0767 21.431C90.4967 21.7681 89.8184 21.9367 89.0415 21.9367C88.2427 21.9367 87.5206 21.741 86.875 21.3494C86.2294 20.9579 85.7206 20.4086 85.3486 19.7016C84.9766 18.9947 84.7906 18.1898 84.7906 17.2871ZM92.4061 17.3034C92.4061 16.6291 92.2693 16.0417 91.9958 15.5414C91.7222 15.0411 91.3502 14.6604 90.8797 14.3994C90.4202 14.1275 89.9114 13.9915 89.3533 13.9915C88.7953 13.9915 88.2865 14.1221 87.8269 14.3831C87.3674 14.6441 87.0008 15.0248 86.7273 15.5251C86.4537 16.0254 86.317 16.6127 86.317 17.2871C86.317 17.9723 86.4537 18.5705 86.7273 19.0817C87.0008 19.582 87.3674 19.9681 87.8269 20.24C88.2865 20.501 88.7953 20.6316 89.3533 20.6316C89.9114 20.6316 90.4202 20.501 90.8797 20.24C91.3502 19.9681 91.7222 19.582 91.9958 19.0817C92.2693 18.5705 92.4061 17.9777 92.4061 17.3034Z" stroke="white" stroke-width="0.4" mask="url(#path-1-outside-1)"/>
<path d="M99.6241 21.9367C98.9348 21.9367 98.3166 21.8225 97.7695 21.5941C97.2224 21.3548 96.7902 21.0285 96.4729 20.6152C96.1556 20.1911 95.9805 19.7071 95.9477 19.1633H97.4905C97.5343 19.6092 97.7421 19.9735 98.1142 20.2563C98.4971 20.5391 98.995 20.6805 99.6077 20.6805C100.177 20.6805 100.625 20.5554 100.954 20.3053C101.282 20.0551 101.446 19.7397 101.446 19.359C101.446 18.9675 101.271 18.6793 100.921 18.4944C100.571 18.2986 100.029 18.1082 99.2959 17.9233C98.6284 17.7493 98.0813 17.5753 97.6546 17.4013C97.2388 17.2164 96.8777 16.9499 96.5714 16.6019C96.2759 16.2429 96.1282 15.7753 96.1282 15.1988C96.1282 14.742 96.265 14.3233 96.5385 13.9426C96.8121 13.5619 97.2005 13.2628 97.7038 13.0453C98.2072 12.8169 98.7816 12.7027 99.4272 12.7027C100.423 12.7027 101.227 12.9528 101.84 13.4532C102.453 13.9535 102.781 14.6387 102.825 15.5088H101.331C101.298 15.0411 101.107 14.6659 100.757 14.3831C100.417 14.1003 99.9579 13.9589 99.378 13.9589C98.8418 13.9589 98.4151 14.0731 98.0978 14.3015C97.7804 14.5299 97.6218 14.829 97.6218 15.1988C97.6218 15.4925 97.7148 15.7372 97.9008 15.933C98.0978 16.1179 98.3385 16.2701 98.623 16.3898C98.9184 16.4985 99.3232 16.6236 99.8375 16.765C100.483 16.939 101.008 17.1131 101.413 17.2871C101.818 17.4502 102.163 17.7004 102.447 18.0375C102.743 18.3747 102.896 18.8152 102.907 19.359C102.907 19.8485 102.77 20.289 102.496 20.6805C102.223 21.0721 101.834 21.382 101.331 21.6104C100.839 21.828 100.27 21.9367 99.6241 21.9367Z" stroke="white" stroke-width="0.4" mask="url(#path-1-outside-1)"/>
<path d="M113.222 16.9771C113.222 17.2599 113.205 17.559 113.172 17.8744H105.983C106.038 18.7554 106.339 19.446 106.886 19.9463C107.444 20.4358 108.117 20.6805 108.905 20.6805C109.551 20.6805 110.087 20.5337 110.513 20.24C110.951 19.9355 111.257 19.533 111.433 19.0327H113.041C112.8 19.892 112.319 20.5935 111.597 21.1373C110.874 21.6703 109.977 21.9367 108.905 21.9367C108.051 21.9367 107.286 21.7464 106.607 21.3657C105.94 20.985 105.414 20.4467 105.032 19.7506C104.649 19.0436 104.457 18.2279 104.457 17.3034C104.457 16.3789 104.643 15.5686 105.015 14.8725C105.387 14.1764 105.907 13.6435 106.574 13.2737C107.253 12.893 108.03 12.7027 108.905 12.7027C109.758 12.7027 110.513 12.8876 111.17 13.2574C111.826 13.6272 112.33 14.1384 112.68 14.7909C113.041 15.4327 113.222 16.1614 113.222 16.9771ZM111.679 16.6671C111.679 16.1016 111.553 15.6176 111.301 15.2151C111.05 14.8018 110.705 14.4918 110.267 14.2852C109.84 14.0677 109.365 13.9589 108.839 13.9589C108.084 13.9589 107.439 14.1982 106.903 14.6767C106.377 15.1553 106.076 15.8188 106 16.6671H111.679Z" stroke="white" stroke-width="0.4" mask="url(#path-1-outside-1)"/>
<path d="M20.1649 23.612H27.4929C29.0712 23.612 30.3113 22.1839 30.3113 20.5177C30.3113 18.8516 29.0712 17.4234 27.4929 17.4234C26.9292 17.4234 26.3655 17.4234 25.8018 17.4234C28.0566 12.306 26.9292 1 16.7828 1C10.0185 1 6.6364 5.16537 6.6364 13.6151H5.50902C3.02879 13.6151 0.999512 15.8763 0.999512 18.6135C0.999512 21.3508 3.02879 23.612 5.50902 23.612H11.1459H20.1649Z" stroke="white" stroke-width="2" stroke-linecap="round" stroke-linejoin="round"/>
<path d="M16.7325 12.1568L14.8322 12.7917L13.8841 9.95378L15.7551 9.32871C16.1438 9.19884 16.5572 9.22562 16.9205 9.4029L16.9206 9.40295C17.284 9.58002 17.5521 9.8854 17.6784 10.2637C17.8048 10.6419 17.774 11.0468 17.5901 11.4067L17.5899 11.4069C17.4108 11.7582 17.108 12.0233 16.7325 12.1568ZM12.5928 10.3845L12.9881 10.2524L15.3197 17.2317L14.9244 17.3637C14.6811 17.445 14.5415 17.7084 14.6248 17.9577C14.7081 18.207 14.978 18.3335 15.2213 18.2523L16.8768 17.6992L17.005 18.0829C17.0883 18.3322 17.3581 18.4588 17.6014 18.3775C17.8448 18.2962 17.9843 18.0328 17.901 17.7835L17.7728 17.3998L18.1506 17.2736L18.2788 17.6573C18.362 17.9066 18.6319 18.0332 18.8752 17.9519C19.119 17.8705 19.2576 17.6069 19.1745 17.3581L19.0463 16.9742C20.4344 16.4926 21.1935 14.9988 20.7315 13.616C20.3868 12.5842 19.4615 11.912 18.4332 11.8237C18.7169 11.2656 18.7872 10.6019 18.5742 9.9644C18.2233 8.91405 17.2164 8.26942 16.1526 8.31248L15.9928 7.83409L15.9927 7.83405C15.9096 7.5853 15.6402 7.45836 15.3967 7.53972C15.1536 7.62094 15.0137 7.88412 15.097 8.13335L15.2255 8.51796L14.8477 8.64416L14.7192 8.25959C14.7192 8.25958 14.7192 8.25956 14.7192 8.25955C14.636 8.01029 14.366 7.88406 14.1229 7.96527C13.8798 8.04648 13.7399 8.30967 13.8232 8.5589L13.9517 8.9435L13.4526 9.11024L13.4524 9.10964L13.2153 9.18885L12.296 9.49597C12.0526 9.57727 11.9131 9.84064 11.9964 10.0899C12.0797 10.3392 12.3495 10.4658 12.5928 10.3845ZM19.7346 15.2258L19.7346 15.2259C19.5242 15.6385 19.1643 15.9473 18.7189 16.0961L16.2155 16.9324L15.1291 13.6805L17.0001 13.0554C17.0128 13.0512 17.0249 13.0468 17.0337 13.0436L17.6324 12.8436C18.0775 12.6948 18.551 12.7257 18.9673 12.9289L18.9674 12.9289C19.3837 13.1318 19.691 13.4818 19.8358 13.9152C19.9807 14.3489 19.9453 14.813 19.7346 15.2258Z" fill="white" stroke="white" stroke-width="0.5"/>
</svg>
