<svg width="13" height="12" viewBox="0 0 13 12" fill="none" xmlns="http://www.w3.org/2000/svg">
<path d="M5.97274 10.9408L3.68273 11.8408C3.16227 12.0408 2.53773 11.8408 2.32955 11.3408C2.22545 11.1408 2.22545 11.0408 2.22545 10.8408L2.43364 8.44082C2.43364 8.14082 2.32955 7.94082 2.22545 7.74082L0.559995 5.94082C0.247721 5.54082 0.247721 4.84082 0.664086 4.54082C0.872268 4.44082 0.97636 4.34082 1.18454 4.34082L3.57864 3.84082C3.89091 3.74082 4.09909 3.64082 4.20319 3.34082L5.45228 1.34082C5.76455 0.84082 6.3891 0.74082 6.90956 1.04082C7.01365 1.14082 7.22183 1.24082 7.22183 1.34082L8.47093 3.34082C8.57502 3.54082 8.88729 3.74082 9.09547 3.84082L11.5937 4.34082C12.1141 4.44082 12.5305 5.04082 12.3223 5.54082C12.3223 5.74082 12.2182 5.84082 12.1141 5.94082L10.5527 7.74082C10.3446 7.94082 10.2405 8.24082 10.3446 8.44082L10.5527 10.8408C10.5527 11.4408 10.1364 11.8408 9.61593 11.9408C9.40775 11.9408 9.30366 11.9408 9.09547 11.8408L6.80547 10.9408C6.49319 10.8408 6.28501 10.8408 5.97274 10.9408Z" fill="url(#paint0_linear)"/>
<defs>
<linearGradient id="paint0_linear" x1="6.95921" y1="-0.870233" x2="7.53342" y2="18.7409" gradientUnits="userSpaceOnUse">
<stop stop-color="#FD749B"/>
<stop offset="1" stop-color="#281AC8"/>
</linearGradient>
</defs>
</svg>
