<svg width="13" height="11" viewBox="0 0 13 11" fill="none" xmlns="http://www.w3.org/2000/svg">
<path opacity="0.8" fill-rule="evenodd" clip-rule="evenodd" d="M12.641 0.203358C12.1252 0.521259 11.5552 0.752459 10.9461 0.876165C10.4608 0.336932 9.7673 0 8.99951 0C7.5278 0 6.33342 1.24341 6.33342 2.77687C6.33342 2.99468 6.35633 3.20579 6.40215 3.40915C4.18556 3.2932 2.22062 2.189 0.904406 0.506809C0.674625 0.918458 0.54342 1.39601 0.54342 1.90458C0.54342 2.86745 1.01409 3.71754 1.73016 4.21553C1.29351 4.20214 0.881497 4.07597 0.521206 3.86944V3.90327C0.521206 5.24924 1.44068 6.37211 2.66178 6.62622C2.43825 6.69142 2.20222 6.7242 1.9589 6.7242C1.78709 6.7242 1.61944 6.70728 1.45699 6.67486C1.79646 7.77764 2.78084 8.58085 3.94814 8.60235C3.03561 9.34741 1.88497 9.79148 0.635749 9.79148C0.420546 9.79148 0.207773 9.7788 -0.000488281 9.75342C1.17966 10.5401 2.5823 11 4.08802 11C8.9943 11 11.6764 6.76931 11.6764 3.09936C11.6764 2.97847 11.6743 2.85793 11.6698 2.73951C12.1908 2.34795 12.6434 1.85912 12.9995 1.30227C12.5219 1.52289 12.0075 1.67233 11.4681 1.73929C12.0189 1.39601 12.4417 0.851847 12.641 0.203358Z" fill="white"/>
</svg>
